<mxfile host="app.diagrams.net" modified="2022-07-12T20:55:30.800Z" agent="5.0 (Windows NT 10.0; Win64; x64) AppleWebKit/537.36 (KHTML, like Gecko) Chrome/103.0.5060.114 Safari/537.36" etag="fQ1tSEcF47g71hucdnQj" version="20.0.4" type="github">
  <diagram id="C5RBs43oDa-KdzZeNtuy" name="Page-1">
    <mxGraphModel dx="944" dy="1692" grid="1" gridSize="10" guides="1" tooltips="1" connect="1" arrows="1" fold="1" page="1" pageScale="1" pageWidth="827" pageHeight="1169" math="0" shadow="0">
      <root>
        <mxCell id="WIyWlLk6GJQsqaUBKTNV-0" />
        <mxCell id="WIyWlLk6GJQsqaUBKTNV-1" parent="WIyWlLk6GJQsqaUBKTNV-0" />
        <mxCell id="w3meJBPXueiPkZgnFTQH-99" value="" style="edgeStyle=orthogonalEdgeStyle;rounded=0;orthogonalLoop=1;jettySize=auto;html=1;" parent="WIyWlLk6GJQsqaUBKTNV-1" source="w3meJBPXueiPkZgnFTQH-0" target="w3meJBPXueiPkZgnFTQH-12" edge="1">
          <mxGeometry relative="1" as="geometry" />
        </mxCell>
        <mxCell id="w3meJBPXueiPkZgnFTQH-0" value="" style="verticalLabelPosition=bottom;verticalAlign=top;html=1;shape=mxgraph.flowchart.on-page_reference;" parent="WIyWlLk6GJQsqaUBKTNV-1" vertex="1">
          <mxGeometry x="250" y="10" width="60" height="60" as="geometry" />
        </mxCell>
        <mxCell id="w3meJBPXueiPkZgnFTQH-1" value="" style="strokeWidth=2;html=1;shape=mxgraph.flowchart.delay;whiteSpace=wrap;" parent="WIyWlLk6GJQsqaUBKTNV-1" vertex="1">
          <mxGeometry x="470" y="-175" width="40" height="20" as="geometry" />
        </mxCell>
        <mxCell id="w3meJBPXueiPkZgnFTQH-2" value="Participant 1" style="text;html=1;align=center;verticalAlign=middle;resizable=0;points=[];autosize=1;strokeColor=none;fillColor=none;" parent="WIyWlLk6GJQsqaUBKTNV-1" vertex="1">
          <mxGeometry x="510" y="-180" width="90" height="30" as="geometry" />
        </mxCell>
        <mxCell id="w3meJBPXueiPkZgnFTQH-3" value="" style="strokeWidth=2;html=1;shape=mxgraph.flowchart.display;whiteSpace=wrap;rotation=-180;" parent="WIyWlLk6GJQsqaUBKTNV-1" vertex="1">
          <mxGeometry x="470" y="-135" width="40" height="20" as="geometry" />
        </mxCell>
        <mxCell id="w3meJBPXueiPkZgnFTQH-5" value="Participant 2" style="text;html=1;align=center;verticalAlign=middle;resizable=0;points=[];autosize=1;strokeColor=none;fillColor=none;" parent="WIyWlLk6GJQsqaUBKTNV-1" vertex="1">
          <mxGeometry x="510" y="-140" width="90" height="30" as="geometry" />
        </mxCell>
        <mxCell id="w3meJBPXueiPkZgnFTQH-6" value="Start" style="text;html=1;strokeColor=none;fillColor=none;align=center;verticalAlign=middle;whiteSpace=wrap;rounded=0;container=1;" parent="WIyWlLk6GJQsqaUBKTNV-1" vertex="1">
          <mxGeometry x="250" y="25" width="60" height="30" as="geometry" />
        </mxCell>
        <mxCell id="w3meJBPXueiPkZgnFTQH-25" style="edgeStyle=orthogonalEdgeStyle;rounded=0;orthogonalLoop=1;jettySize=auto;html=1;entryX=0.5;entryY=0;entryDx=0;entryDy=0;" parent="WIyWlLk6GJQsqaUBKTNV-1" source="w3meJBPXueiPkZgnFTQH-12" target="w3meJBPXueiPkZgnFTQH-24" edge="1">
          <mxGeometry relative="1" as="geometry" />
        </mxCell>
        <mxCell id="w3meJBPXueiPkZgnFTQH-12" value="Asks a Question" style="rounded=1;whiteSpace=wrap;html=1;" parent="WIyWlLk6GJQsqaUBKTNV-1" vertex="1">
          <mxGeometry x="220" y="120" width="120" height="60" as="geometry" />
        </mxCell>
        <mxCell id="w3meJBPXueiPkZgnFTQH-17" value="" style="group" parent="WIyWlLk6GJQsqaUBKTNV-1" vertex="1" connectable="0">
          <mxGeometry x="470" y="-95" width="40" height="60" as="geometry" />
        </mxCell>
        <mxCell id="w3meJBPXueiPkZgnFTQH-13" value="" style="strokeWidth=2;html=1;shape=mxgraph.flowchart.delay;whiteSpace=wrap;" parent="w3meJBPXueiPkZgnFTQH-17" vertex="1">
          <mxGeometry width="40" height="20" as="geometry" />
        </mxCell>
        <mxCell id="w3meJBPXueiPkZgnFTQH-14" value="" style="strokeWidth=2;html=1;shape=mxgraph.flowchart.display;whiteSpace=wrap;rotation=-180;" parent="w3meJBPXueiPkZgnFTQH-17" vertex="1">
          <mxGeometry y="40" width="40" height="20" as="geometry" />
        </mxCell>
        <mxCell id="w3meJBPXueiPkZgnFTQH-15" value="" style="endArrow=classic;startArrow=classic;html=1;rounded=0;" parent="w3meJBPXueiPkZgnFTQH-17" edge="1">
          <mxGeometry width="50" height="50" relative="1" as="geometry">
            <mxPoint x="19.5" y="40" as="sourcePoint" />
            <mxPoint x="20" y="20" as="targetPoint" />
          </mxGeometry>
        </mxCell>
        <mxCell id="w3meJBPXueiPkZgnFTQH-18" value="Both Participants &lt;br&gt;Alternatively" style="text;html=1;align=center;verticalAlign=middle;resizable=0;points=[];autosize=1;strokeColor=none;fillColor=none;" parent="WIyWlLk6GJQsqaUBKTNV-1" vertex="1">
          <mxGeometry x="514" y="-85" width="110" height="40" as="geometry" />
        </mxCell>
        <mxCell id="w3meJBPXueiPkZgnFTQH-19" value="" style="group" parent="WIyWlLk6GJQsqaUBKTNV-1" vertex="1" connectable="0">
          <mxGeometry x="219" y="52" width="30" height="44" as="geometry" />
        </mxCell>
        <mxCell id="w3meJBPXueiPkZgnFTQH-20" value="" style="strokeWidth=2;html=1;shape=mxgraph.flowchart.delay;whiteSpace=wrap;" parent="w3meJBPXueiPkZgnFTQH-19" vertex="1">
          <mxGeometry width="30" height="14.666666666666666" as="geometry" />
        </mxCell>
        <mxCell id="w3meJBPXueiPkZgnFTQH-21" value="" style="strokeWidth=2;html=1;shape=mxgraph.flowchart.display;whiteSpace=wrap;rotation=-180;" parent="w3meJBPXueiPkZgnFTQH-19" vertex="1">
          <mxGeometry y="29.333333333333332" width="30" height="14.666666666666666" as="geometry" />
        </mxCell>
        <mxCell id="w3meJBPXueiPkZgnFTQH-22" value="" style="endArrow=classic;startArrow=classic;html=1;rounded=0;" parent="w3meJBPXueiPkZgnFTQH-19" edge="1">
          <mxGeometry width="50" height="50" relative="1" as="geometry">
            <mxPoint x="14.625" y="29.333333333333332" as="sourcePoint" />
            <mxPoint x="15" y="14.666666666666666" as="targetPoint" />
          </mxGeometry>
        </mxCell>
        <mxCell id="w3meJBPXueiPkZgnFTQH-64" style="edgeStyle=orthogonalEdgeStyle;rounded=0;orthogonalLoop=1;jettySize=auto;html=1;entryX=0.5;entryY=0;entryDx=0;entryDy=0;" parent="WIyWlLk6GJQsqaUBKTNV-1" source="w3meJBPXueiPkZgnFTQH-24" target="w3meJBPXueiPkZgnFTQH-63" edge="1">
          <mxGeometry relative="1" as="geometry" />
        </mxCell>
        <mxCell id="w3meJBPXueiPkZgnFTQH-80" style="edgeStyle=orthogonalEdgeStyle;rounded=0;orthogonalLoop=1;jettySize=auto;html=1;entryX=0;entryY=0.5;entryDx=0;entryDy=0;" parent="WIyWlLk6GJQsqaUBKTNV-1" source="w3meJBPXueiPkZgnFTQH-24" target="w3meJBPXueiPkZgnFTQH-79" edge="1">
          <mxGeometry relative="1" as="geometry" />
        </mxCell>
        <mxCell id="w3meJBPXueiPkZgnFTQH-90" style="edgeStyle=orthogonalEdgeStyle;rounded=0;orthogonalLoop=1;jettySize=auto;html=1;entryX=0;entryY=0.5;entryDx=0;entryDy=0;" parent="WIyWlLk6GJQsqaUBKTNV-1" source="w3meJBPXueiPkZgnFTQH-24" target="w3meJBPXueiPkZgnFTQH-83" edge="1">
          <mxGeometry relative="1" as="geometry">
            <Array as="points">
              <mxPoint x="370" y="280" />
              <mxPoint x="370" y="460" />
            </Array>
          </mxGeometry>
        </mxCell>
        <mxCell id="w3meJBPXueiPkZgnFTQH-24" value="Ready to Answer" style="rhombus;whiteSpace=wrap;html=1;" parent="WIyWlLk6GJQsqaUBKTNV-1" vertex="1">
          <mxGeometry x="240" y="240" width="80" height="80" as="geometry" />
        </mxCell>
        <mxCell id="w3meJBPXueiPkZgnFTQH-47" value="" style="group" parent="WIyWlLk6GJQsqaUBKTNV-1" vertex="1" connectable="0">
          <mxGeometry x="220" y="213" width="40" height="50" as="geometry" />
        </mxCell>
        <mxCell id="w3meJBPXueiPkZgnFTQH-48" value="" style="strokeWidth=2;html=1;shape=mxgraph.flowchart.delay;whiteSpace=wrap;" parent="w3meJBPXueiPkZgnFTQH-47" vertex="1">
          <mxGeometry x="8" width="32" height="16.666666666666668" as="geometry" />
        </mxCell>
        <mxCell id="w3meJBPXueiPkZgnFTQH-49" value="" style="strokeWidth=2;html=1;shape=mxgraph.flowchart.display;whiteSpace=wrap;rotation=-180;" parent="w3meJBPXueiPkZgnFTQH-47" vertex="1">
          <mxGeometry x="8" y="33.33" width="32" height="16.67" as="geometry" />
        </mxCell>
        <mxCell id="w3meJBPXueiPkZgnFTQH-50" value="" style="endArrow=classic;html=1;rounded=0;" parent="w3meJBPXueiPkZgnFTQH-47" edge="1">
          <mxGeometry width="50" height="50" relative="1" as="geometry">
            <mxPoint y="4.166666666666667" as="sourcePoint" />
            <mxPoint y="45.833333333333336" as="targetPoint" />
          </mxGeometry>
        </mxCell>
        <mxCell id="w3meJBPXueiPkZgnFTQH-51" value="The Participant &lt;br&gt;Same as Previous&lt;br&gt;Block" style="text;html=1;align=center;verticalAlign=middle;resizable=0;points=[];autosize=1;strokeColor=none;fillColor=none;" parent="WIyWlLk6GJQsqaUBKTNV-1" vertex="1">
          <mxGeometry x="675" y="-175" width="120" height="60" as="geometry" />
        </mxCell>
        <mxCell id="w3meJBPXueiPkZgnFTQH-52" value="" style="group" parent="WIyWlLk6GJQsqaUBKTNV-1" vertex="1" connectable="0">
          <mxGeometry x="624" y="-175" width="50" height="60" as="geometry" />
        </mxCell>
        <mxCell id="w3meJBPXueiPkZgnFTQH-53" value="" style="strokeWidth=2;html=1;shape=mxgraph.flowchart.delay;whiteSpace=wrap;" parent="w3meJBPXueiPkZgnFTQH-52" vertex="1">
          <mxGeometry x="10" width="40" height="20" as="geometry" />
        </mxCell>
        <mxCell id="w3meJBPXueiPkZgnFTQH-54" value="" style="strokeWidth=2;html=1;shape=mxgraph.flowchart.display;whiteSpace=wrap;rotation=-180;" parent="w3meJBPXueiPkZgnFTQH-52" vertex="1">
          <mxGeometry x="10" y="40" width="40" height="20" as="geometry" />
        </mxCell>
        <mxCell id="w3meJBPXueiPkZgnFTQH-55" value="" style="endArrow=classic;html=1;rounded=0;" parent="w3meJBPXueiPkZgnFTQH-52" edge="1">
          <mxGeometry width="50" height="50" relative="1" as="geometry">
            <mxPoint y="55" as="sourcePoint" />
            <mxPoint y="5" as="targetPoint" />
          </mxGeometry>
        </mxCell>
        <mxCell id="w3meJBPXueiPkZgnFTQH-56" value="The Participant &lt;br&gt;Opposite as Previous&lt;br&gt;Block" style="text;html=1;align=center;verticalAlign=middle;resizable=0;points=[];autosize=1;strokeColor=none;fillColor=none;" parent="WIyWlLk6GJQsqaUBKTNV-1" vertex="1">
          <mxGeometry x="673" y="-95" width="140" height="60" as="geometry" />
        </mxCell>
        <mxCell id="w3meJBPXueiPkZgnFTQH-57" value="" style="group" parent="WIyWlLk6GJQsqaUBKTNV-1" vertex="1" connectable="0">
          <mxGeometry x="625" y="-95" width="50" height="60" as="geometry" />
        </mxCell>
        <mxCell id="w3meJBPXueiPkZgnFTQH-58" value="" style="strokeWidth=2;html=1;shape=mxgraph.flowchart.delay;whiteSpace=wrap;" parent="w3meJBPXueiPkZgnFTQH-57" vertex="1">
          <mxGeometry x="10" width="40" height="20" as="geometry" />
        </mxCell>
        <mxCell id="w3meJBPXueiPkZgnFTQH-59" value="" style="strokeWidth=2;html=1;shape=mxgraph.flowchart.display;whiteSpace=wrap;rotation=-180;" parent="w3meJBPXueiPkZgnFTQH-57" vertex="1">
          <mxGeometry x="10" y="40" width="40" height="20" as="geometry" />
        </mxCell>
        <mxCell id="w3meJBPXueiPkZgnFTQH-60" value="" style="endArrow=classic;html=1;rounded=0;" parent="w3meJBPXueiPkZgnFTQH-57" edge="1">
          <mxGeometry width="50" height="50" relative="1" as="geometry">
            <mxPoint y="5" as="sourcePoint" />
            <mxPoint y="55" as="targetPoint" />
          </mxGeometry>
        </mxCell>
        <mxCell id="w3meJBPXueiPkZgnFTQH-62" value="Yes" style="text;html=1;align=center;verticalAlign=middle;resizable=0;points=[];autosize=1;strokeColor=none;fillColor=none;" parent="WIyWlLk6GJQsqaUBKTNV-1" vertex="1">
          <mxGeometry x="276" y="325" width="40" height="30" as="geometry" />
        </mxCell>
        <mxCell id="w3meJBPXueiPkZgnFTQH-70" style="edgeStyle=orthogonalEdgeStyle;rounded=0;orthogonalLoop=1;jettySize=auto;html=1;entryX=0.5;entryY=0;entryDx=0;entryDy=0;" parent="WIyWlLk6GJQsqaUBKTNV-1" source="w3meJBPXueiPkZgnFTQH-63" target="w3meJBPXueiPkZgnFTQH-69" edge="1">
          <mxGeometry relative="1" as="geometry" />
        </mxCell>
        <mxCell id="w3meJBPXueiPkZgnFTQH-63" value="Answers the&lt;br&gt;Question" style="rounded=1;whiteSpace=wrap;html=1;" parent="WIyWlLk6GJQsqaUBKTNV-1" vertex="1">
          <mxGeometry x="220" y="370" width="120" height="60" as="geometry" />
        </mxCell>
        <mxCell id="w3meJBPXueiPkZgnFTQH-65" value="" style="group" parent="WIyWlLk6GJQsqaUBKTNV-1" vertex="1" connectable="0">
          <mxGeometry x="160" y="370" width="50" height="60" as="geometry" />
        </mxCell>
        <mxCell id="w3meJBPXueiPkZgnFTQH-66" value="" style="strokeWidth=2;html=1;shape=mxgraph.flowchart.delay;whiteSpace=wrap;" parent="w3meJBPXueiPkZgnFTQH-65" vertex="1">
          <mxGeometry x="10" width="40" height="20" as="geometry" />
        </mxCell>
        <mxCell id="w3meJBPXueiPkZgnFTQH-67" value="" style="strokeWidth=2;html=1;shape=mxgraph.flowchart.display;whiteSpace=wrap;rotation=-180;" parent="w3meJBPXueiPkZgnFTQH-65" vertex="1">
          <mxGeometry x="10" y="40" width="40" height="20" as="geometry" />
        </mxCell>
        <mxCell id="w3meJBPXueiPkZgnFTQH-68" value="" style="endArrow=classic;html=1;rounded=0;" parent="w3meJBPXueiPkZgnFTQH-65" edge="1">
          <mxGeometry width="50" height="50" relative="1" as="geometry">
            <mxPoint y="55" as="sourcePoint" />
            <mxPoint y="5" as="targetPoint" />
          </mxGeometry>
        </mxCell>
        <mxCell id="w3meJBPXueiPkZgnFTQH-77" style="edgeStyle=orthogonalEdgeStyle;rounded=0;orthogonalLoop=1;jettySize=auto;html=1;entryX=0.5;entryY=0;entryDx=0;entryDy=0;exitX=0;exitY=0.5;exitDx=0;exitDy=0;" parent="WIyWlLk6GJQsqaUBKTNV-1" source="w3meJBPXueiPkZgnFTQH-69" target="w3meJBPXueiPkZgnFTQH-12" edge="1">
          <mxGeometry relative="1" as="geometry">
            <Array as="points">
              <mxPoint x="80" y="566" />
              <mxPoint x="80" y="100" />
              <mxPoint x="280" y="100" />
            </Array>
          </mxGeometry>
        </mxCell>
        <mxCell id="w3meJBPXueiPkZgnFTQH-69" value="Satisfied by the Answer" style="rhombus;whiteSpace=wrap;html=1;" parent="WIyWlLk6GJQsqaUBKTNV-1" vertex="1">
          <mxGeometry x="225" y="521" width="110" height="90" as="geometry" />
        </mxCell>
        <mxCell id="w3meJBPXueiPkZgnFTQH-71" value="" style="group" parent="WIyWlLk6GJQsqaUBKTNV-1" vertex="1" connectable="0">
          <mxGeometry x="218" y="492" width="40" height="50" as="geometry" />
        </mxCell>
        <mxCell id="w3meJBPXueiPkZgnFTQH-72" value="" style="strokeWidth=2;html=1;shape=mxgraph.flowchart.delay;whiteSpace=wrap;" parent="w3meJBPXueiPkZgnFTQH-71" vertex="1">
          <mxGeometry x="8" width="32" height="16.666666666666668" as="geometry" />
        </mxCell>
        <mxCell id="w3meJBPXueiPkZgnFTQH-73" value="" style="strokeWidth=2;html=1;shape=mxgraph.flowchart.display;whiteSpace=wrap;rotation=-180;" parent="w3meJBPXueiPkZgnFTQH-71" vertex="1">
          <mxGeometry x="8" y="34.333333333333336" width="32" height="16.666666666666668" as="geometry" />
        </mxCell>
        <mxCell id="w3meJBPXueiPkZgnFTQH-74" value="" style="endArrow=classic;html=1;rounded=0;" parent="w3meJBPXueiPkZgnFTQH-71" edge="1">
          <mxGeometry width="50" height="50" relative="1" as="geometry">
            <mxPoint y="5.166666666666667" as="sourcePoint" />
            <mxPoint y="46.833333333333336" as="targetPoint" />
          </mxGeometry>
        </mxCell>
        <mxCell id="w3meJBPXueiPkZgnFTQH-78" value="Yes" style="text;html=1;align=center;verticalAlign=middle;resizable=0;points=[];autosize=1;strokeColor=none;fillColor=none;" parent="WIyWlLk6GJQsqaUBKTNV-1" vertex="1">
          <mxGeometry x="180" y="566" width="40" height="30" as="geometry" />
        </mxCell>
        <mxCell id="F_gbSxlQktFlWxRvoj5g-1" value="" style="edgeStyle=orthogonalEdgeStyle;rounded=0;orthogonalLoop=1;jettySize=auto;html=1;" edge="1" parent="WIyWlLk6GJQsqaUBKTNV-1" source="w3meJBPXueiPkZgnFTQH-79" target="F_gbSxlQktFlWxRvoj5g-0">
          <mxGeometry relative="1" as="geometry" />
        </mxCell>
        <mxCell id="w3meJBPXueiPkZgnFTQH-79" value="Requests for Rephrasing" style="rounded=1;whiteSpace=wrap;html=1;" parent="WIyWlLk6GJQsqaUBKTNV-1" vertex="1">
          <mxGeometry x="420" y="250" width="120" height="60" as="geometry" />
        </mxCell>
        <mxCell id="w3meJBPXueiPkZgnFTQH-81" value="No" style="text;html=1;align=center;verticalAlign=middle;resizable=0;points=[];autosize=1;strokeColor=none;fillColor=none;" parent="WIyWlLk6GJQsqaUBKTNV-1" vertex="1">
          <mxGeometry x="311" y="278" width="40" height="30" as="geometry" />
        </mxCell>
        <mxCell id="F_gbSxlQktFlWxRvoj5g-22" value="" style="edgeStyle=orthogonalEdgeStyle;rounded=0;orthogonalLoop=1;jettySize=auto;html=1;" edge="1" parent="WIyWlLk6GJQsqaUBKTNV-1" source="w3meJBPXueiPkZgnFTQH-82" target="F_gbSxlQktFlWxRvoj5g-21">
          <mxGeometry relative="1" as="geometry" />
        </mxCell>
        <mxCell id="w3meJBPXueiPkZgnFTQH-82" value="Requests for Changing the Question" style="rounded=1;whiteSpace=wrap;html=1;" parent="WIyWlLk6GJQsqaUBKTNV-1" vertex="1">
          <mxGeometry x="420" y="340" width="120" height="60" as="geometry" />
        </mxCell>
        <mxCell id="F_gbSxlQktFlWxRvoj5g-35" value="" style="edgeStyle=elbowEdgeStyle;rounded=0;jumpStyle=arc;orthogonalLoop=1;jettySize=auto;html=1;" edge="1" parent="WIyWlLk6GJQsqaUBKTNV-1" source="w3meJBPXueiPkZgnFTQH-83" target="F_gbSxlQktFlWxRvoj5g-34">
          <mxGeometry relative="1" as="geometry" />
        </mxCell>
        <mxCell id="w3meJBPXueiPkZgnFTQH-83" value="Requests for some time (in special cases)" style="rounded=1;whiteSpace=wrap;html=1;" parent="WIyWlLk6GJQsqaUBKTNV-1" vertex="1">
          <mxGeometry x="420" y="430" width="120" height="60" as="geometry" />
        </mxCell>
        <mxCell id="w3meJBPXueiPkZgnFTQH-84" value="" style="group" parent="WIyWlLk6GJQsqaUBKTNV-1" vertex="1" connectable="0">
          <mxGeometry x="380" y="230" width="34" height="40" as="geometry" />
        </mxCell>
        <mxCell id="w3meJBPXueiPkZgnFTQH-85" value="" style="strokeWidth=2;html=1;shape=mxgraph.flowchart.delay;whiteSpace=wrap;" parent="w3meJBPXueiPkZgnFTQH-84" vertex="1">
          <mxGeometry x="6.800000000000001" width="27.200000000000003" height="13.333333333333332" as="geometry" />
        </mxCell>
        <mxCell id="w3meJBPXueiPkZgnFTQH-86" value="" style="strokeWidth=2;html=1;shape=mxgraph.flowchart.display;whiteSpace=wrap;rotation=-180;" parent="w3meJBPXueiPkZgnFTQH-84" vertex="1">
          <mxGeometry x="6.800000000000001" y="26.666666666666664" width="27.200000000000003" height="13.333333333333332" as="geometry" />
        </mxCell>
        <mxCell id="w3meJBPXueiPkZgnFTQH-87" value="" style="endArrow=classic;html=1;rounded=0;" parent="w3meJBPXueiPkZgnFTQH-84" edge="1">
          <mxGeometry width="50" height="50" relative="1" as="geometry">
            <mxPoint y="36.666666666666664" as="sourcePoint" />
            <mxPoint y="3.333333333333333" as="targetPoint" />
          </mxGeometry>
        </mxCell>
        <mxCell id="w3meJBPXueiPkZgnFTQH-89" value="" style="endArrow=classic;html=1;rounded=0;entryX=0;entryY=0.5;entryDx=0;entryDy=0;exitX=1;exitY=0.5;exitDx=0;exitDy=0;" parent="WIyWlLk6GJQsqaUBKTNV-1" source="w3meJBPXueiPkZgnFTQH-24" target="w3meJBPXueiPkZgnFTQH-82" edge="1">
          <mxGeometry width="50" height="50" relative="1" as="geometry">
            <mxPoint x="320" y="280" as="sourcePoint" />
            <mxPoint x="370" y="230" as="targetPoint" />
            <Array as="points">
              <mxPoint x="370" y="280" />
              <mxPoint x="370" y="370" />
            </Array>
          </mxGeometry>
        </mxCell>
        <mxCell id="w3meJBPXueiPkZgnFTQH-91" value="" style="group" parent="WIyWlLk6GJQsqaUBKTNV-1" vertex="1" connectable="0">
          <mxGeometry x="380" y="320" width="34" height="40" as="geometry" />
        </mxCell>
        <mxCell id="w3meJBPXueiPkZgnFTQH-92" value="" style="strokeWidth=2;html=1;shape=mxgraph.flowchart.delay;whiteSpace=wrap;" parent="w3meJBPXueiPkZgnFTQH-91" vertex="1">
          <mxGeometry x="6.800000000000001" width="27.200000000000003" height="13.333333333333332" as="geometry" />
        </mxCell>
        <mxCell id="w3meJBPXueiPkZgnFTQH-93" value="" style="strokeWidth=2;html=1;shape=mxgraph.flowchart.display;whiteSpace=wrap;rotation=-180;" parent="w3meJBPXueiPkZgnFTQH-91" vertex="1">
          <mxGeometry x="6.800000000000001" y="26.666666666666664" width="27.200000000000003" height="13.333333333333332" as="geometry" />
        </mxCell>
        <mxCell id="w3meJBPXueiPkZgnFTQH-94" value="" style="endArrow=classic;html=1;rounded=0;" parent="w3meJBPXueiPkZgnFTQH-91" edge="1">
          <mxGeometry width="50" height="50" relative="1" as="geometry">
            <mxPoint y="36.666666666666664" as="sourcePoint" />
            <mxPoint y="3.333333333333333" as="targetPoint" />
          </mxGeometry>
        </mxCell>
        <mxCell id="w3meJBPXueiPkZgnFTQH-95" value="" style="group" parent="WIyWlLk6GJQsqaUBKTNV-1" vertex="1" connectable="0">
          <mxGeometry x="380" y="410" width="34" height="40" as="geometry" />
        </mxCell>
        <mxCell id="w3meJBPXueiPkZgnFTQH-96" value="" style="strokeWidth=2;html=1;shape=mxgraph.flowchart.delay;whiteSpace=wrap;" parent="w3meJBPXueiPkZgnFTQH-95" vertex="1">
          <mxGeometry x="6.800000000000001" width="27.200000000000003" height="13.333333333333332" as="geometry" />
        </mxCell>
        <mxCell id="w3meJBPXueiPkZgnFTQH-97" value="" style="strokeWidth=2;html=1;shape=mxgraph.flowchart.display;whiteSpace=wrap;rotation=-180;" parent="w3meJBPXueiPkZgnFTQH-95" vertex="1">
          <mxGeometry x="6.800000000000001" y="26.666666666666664" width="27.200000000000003" height="13.333333333333332" as="geometry" />
        </mxCell>
        <mxCell id="w3meJBPXueiPkZgnFTQH-98" value="" style="endArrow=classic;html=1;rounded=0;" parent="w3meJBPXueiPkZgnFTQH-95" edge="1">
          <mxGeometry width="50" height="50" relative="1" as="geometry">
            <mxPoint y="36.666666666666664" as="sourcePoint" />
            <mxPoint y="3.333333333333333" as="targetPoint" />
          </mxGeometry>
        </mxCell>
        <mxCell id="F_gbSxlQktFlWxRvoj5g-2" style="edgeStyle=orthogonalEdgeStyle;rounded=0;orthogonalLoop=1;jettySize=auto;html=1;entryX=0.75;entryY=0;entryDx=0;entryDy=0;exitX=0.5;exitY=0;exitDx=0;exitDy=0;" edge="1" parent="WIyWlLk6GJQsqaUBKTNV-1" source="F_gbSxlQktFlWxRvoj5g-0" target="w3meJBPXueiPkZgnFTQH-12">
          <mxGeometry relative="1" as="geometry">
            <Array as="points">
              <mxPoint x="605" y="100" />
              <mxPoint x="310" y="100" />
            </Array>
          </mxGeometry>
        </mxCell>
        <mxCell id="F_gbSxlQktFlWxRvoj5g-6" value="" style="edgeStyle=orthogonalEdgeStyle;rounded=0;orthogonalLoop=1;jettySize=auto;html=1;" edge="1" parent="WIyWlLk6GJQsqaUBKTNV-1" source="F_gbSxlQktFlWxRvoj5g-0" target="F_gbSxlQktFlWxRvoj5g-5">
          <mxGeometry relative="1" as="geometry" />
        </mxCell>
        <mxCell id="F_gbSxlQktFlWxRvoj5g-0" value="First&lt;br&gt;Request" style="rhombus;whiteSpace=wrap;html=1;rounded=1;" vertex="1" parent="WIyWlLk6GJQsqaUBKTNV-1">
          <mxGeometry x="565" y="240" width="80" height="80" as="geometry" />
        </mxCell>
        <mxCell id="F_gbSxlQktFlWxRvoj5g-3" value="Yes" style="text;html=1;align=center;verticalAlign=middle;resizable=0;points=[];autosize=1;strokeColor=none;fillColor=none;" vertex="1" parent="WIyWlLk6GJQsqaUBKTNV-1">
          <mxGeometry x="600" y="210" width="40" height="30" as="geometry" />
        </mxCell>
        <mxCell id="F_gbSxlQktFlWxRvoj5g-17" style="edgeStyle=orthogonalEdgeStyle;rounded=0;orthogonalLoop=1;jettySize=auto;html=1;exitX=0.5;exitY=0;exitDx=0;exitDy=0;" edge="1" parent="WIyWlLk6GJQsqaUBKTNV-1" source="F_gbSxlQktFlWxRvoj5g-5">
          <mxGeometry relative="1" as="geometry">
            <mxPoint x="310" y="120" as="targetPoint" />
            <Array as="points">
              <mxPoint x="712" y="100" />
              <mxPoint x="310" y="100" />
            </Array>
          </mxGeometry>
        </mxCell>
        <mxCell id="F_gbSxlQktFlWxRvoj5g-20" value="" style="edgeStyle=orthogonalEdgeStyle;rounded=0;orthogonalLoop=1;jettySize=auto;html=1;" edge="1" parent="WIyWlLk6GJQsqaUBKTNV-1" source="F_gbSxlQktFlWxRvoj5g-5" target="F_gbSxlQktFlWxRvoj5g-19">
          <mxGeometry relative="1" as="geometry" />
        </mxCell>
        <mxCell id="F_gbSxlQktFlWxRvoj5g-5" value="Agrees to Rephrase" style="rhombus;whiteSpace=wrap;html=1;rounded=1;" vertex="1" parent="WIyWlLk6GJQsqaUBKTNV-1">
          <mxGeometry x="672" y="240" width="80" height="80" as="geometry" />
        </mxCell>
        <mxCell id="F_gbSxlQktFlWxRvoj5g-7" value="" style="group" vertex="1" connectable="0" parent="WIyWlLk6GJQsqaUBKTNV-1">
          <mxGeometry x="661" y="222" width="30" height="40" as="geometry" />
        </mxCell>
        <mxCell id="F_gbSxlQktFlWxRvoj5g-8" value="" style="strokeWidth=2;html=1;shape=mxgraph.flowchart.delay;whiteSpace=wrap;" vertex="1" parent="F_gbSxlQktFlWxRvoj5g-7">
          <mxGeometry x="6" width="24" height="13.333333333333336" as="geometry" />
        </mxCell>
        <mxCell id="F_gbSxlQktFlWxRvoj5g-9" value="" style="strokeWidth=2;html=1;shape=mxgraph.flowchart.display;whiteSpace=wrap;rotation=-180;" vertex="1" parent="F_gbSxlQktFlWxRvoj5g-7">
          <mxGeometry x="6" y="26.664" width="24" height="13.336000000000002" as="geometry" />
        </mxCell>
        <mxCell id="F_gbSxlQktFlWxRvoj5g-10" value="" style="endArrow=classic;html=1;rounded=0;" edge="1" parent="F_gbSxlQktFlWxRvoj5g-7">
          <mxGeometry width="50" height="50" relative="1" as="geometry">
            <mxPoint y="3.333333333333334" as="sourcePoint" />
            <mxPoint y="36.66666666666667" as="targetPoint" />
          </mxGeometry>
        </mxCell>
        <mxCell id="F_gbSxlQktFlWxRvoj5g-12" value="No" style="text;html=1;align=center;verticalAlign=middle;resizable=0;points=[];autosize=1;strokeColor=none;fillColor=none;" vertex="1" parent="WIyWlLk6GJQsqaUBKTNV-1">
          <mxGeometry x="636" y="280" width="40" height="30" as="geometry" />
        </mxCell>
        <mxCell id="F_gbSxlQktFlWxRvoj5g-13" value="" style="group" vertex="1" connectable="0" parent="WIyWlLk6GJQsqaUBKTNV-1">
          <mxGeometry x="555" y="220" width="30" height="40" as="geometry" />
        </mxCell>
        <mxCell id="F_gbSxlQktFlWxRvoj5g-14" value="" style="strokeWidth=2;html=1;shape=mxgraph.flowchart.delay;whiteSpace=wrap;" vertex="1" parent="F_gbSxlQktFlWxRvoj5g-13">
          <mxGeometry x="6" width="24" height="13.333333333333336" as="geometry" />
        </mxCell>
        <mxCell id="F_gbSxlQktFlWxRvoj5g-15" value="" style="strokeWidth=2;html=1;shape=mxgraph.flowchart.display;whiteSpace=wrap;rotation=-180;" vertex="1" parent="F_gbSxlQktFlWxRvoj5g-13">
          <mxGeometry x="6" y="26.664" width="24" height="13.336000000000002" as="geometry" />
        </mxCell>
        <mxCell id="F_gbSxlQktFlWxRvoj5g-16" value="" style="endArrow=classic;html=1;rounded=0;" edge="1" parent="F_gbSxlQktFlWxRvoj5g-13">
          <mxGeometry width="50" height="50" relative="1" as="geometry">
            <mxPoint y="3.333333333333334" as="sourcePoint" />
            <mxPoint y="36.66666666666667" as="targetPoint" />
          </mxGeometry>
        </mxCell>
        <mxCell id="F_gbSxlQktFlWxRvoj5g-18" value="Yes" style="text;html=1;align=center;verticalAlign=middle;resizable=0;points=[];autosize=1;strokeColor=none;fillColor=none;" vertex="1" parent="WIyWlLk6GJQsqaUBKTNV-1">
          <mxGeometry x="707" y="211" width="40" height="30" as="geometry" />
        </mxCell>
        <mxCell id="F_gbSxlQktFlWxRvoj5g-19" value="Postponement" style="ellipse;whiteSpace=wrap;html=1;rounded=1;" vertex="1" parent="WIyWlLk6GJQsqaUBKTNV-1">
          <mxGeometry x="1270" y="230" width="96.67" height="100" as="geometry" />
        </mxCell>
        <mxCell id="F_gbSxlQktFlWxRvoj5g-23" style="edgeStyle=orthogonalEdgeStyle;rounded=0;orthogonalLoop=1;jettySize=auto;html=1;exitX=0.5;exitY=0;exitDx=0;exitDy=0;entryX=0.75;entryY=0;entryDx=0;entryDy=0;jumpStyle=arc;jumpSize=10;" edge="1" parent="WIyWlLk6GJQsqaUBKTNV-1" source="F_gbSxlQktFlWxRvoj5g-21" target="w3meJBPXueiPkZgnFTQH-12">
          <mxGeometry relative="1" as="geometry">
            <Array as="points">
              <mxPoint x="808" y="100" />
              <mxPoint x="310" y="100" />
            </Array>
          </mxGeometry>
        </mxCell>
        <mxCell id="F_gbSxlQktFlWxRvoj5g-30" style="edgeStyle=elbowEdgeStyle;rounded=0;orthogonalLoop=1;jettySize=auto;html=1;entryX=0;entryY=0.5;entryDx=0;entryDy=0;" edge="1" parent="WIyWlLk6GJQsqaUBKTNV-1" source="F_gbSxlQktFlWxRvoj5g-21" target="F_gbSxlQktFlWxRvoj5g-19">
          <mxGeometry relative="1" as="geometry">
            <Array as="points">
              <mxPoint x="880" y="320" />
            </Array>
          </mxGeometry>
        </mxCell>
        <mxCell id="F_gbSxlQktFlWxRvoj5g-21" value="Agrees to Change" style="rhombus;whiteSpace=wrap;html=1;rounded=1;" vertex="1" parent="WIyWlLk6GJQsqaUBKTNV-1">
          <mxGeometry x="768" y="330" width="80" height="80" as="geometry" />
        </mxCell>
        <mxCell id="F_gbSxlQktFlWxRvoj5g-24" value="" style="group" vertex="1" connectable="0" parent="WIyWlLk6GJQsqaUBKTNV-1">
          <mxGeometry x="760" y="310" width="30" height="40" as="geometry" />
        </mxCell>
        <mxCell id="F_gbSxlQktFlWxRvoj5g-25" value="" style="strokeWidth=2;html=1;shape=mxgraph.flowchart.delay;whiteSpace=wrap;" vertex="1" parent="F_gbSxlQktFlWxRvoj5g-24">
          <mxGeometry x="6" width="24" height="13.333333333333336" as="geometry" />
        </mxCell>
        <mxCell id="F_gbSxlQktFlWxRvoj5g-26" value="" style="strokeWidth=2;html=1;shape=mxgraph.flowchart.display;whiteSpace=wrap;rotation=-180;" vertex="1" parent="F_gbSxlQktFlWxRvoj5g-24">
          <mxGeometry x="6" y="26.664" width="24" height="13.336000000000002" as="geometry" />
        </mxCell>
        <mxCell id="F_gbSxlQktFlWxRvoj5g-27" value="" style="endArrow=classic;html=1;rounded=0;" edge="1" parent="F_gbSxlQktFlWxRvoj5g-24">
          <mxGeometry width="50" height="50" relative="1" as="geometry">
            <mxPoint y="3.333333333333334" as="sourcePoint" />
            <mxPoint y="36.66666666666667" as="targetPoint" />
          </mxGeometry>
        </mxCell>
        <mxCell id="F_gbSxlQktFlWxRvoj5g-28" value="Yes" style="text;html=1;align=center;verticalAlign=middle;resizable=0;points=[];autosize=1;strokeColor=none;fillColor=none;" vertex="1" parent="WIyWlLk6GJQsqaUBKTNV-1">
          <mxGeometry x="805" y="302" width="40" height="30" as="geometry" />
        </mxCell>
        <mxCell id="F_gbSxlQktFlWxRvoj5g-29" value="No" style="text;html=1;align=center;verticalAlign=middle;resizable=0;points=[];autosize=1;strokeColor=none;fillColor=none;" vertex="1" parent="WIyWlLk6GJQsqaUBKTNV-1">
          <mxGeometry x="740" y="255" width="40" height="30" as="geometry" />
        </mxCell>
        <mxCell id="F_gbSxlQktFlWxRvoj5g-31" value="No" style="text;html=1;align=center;verticalAlign=middle;resizable=0;points=[];autosize=1;strokeColor=none;fillColor=none;" vertex="1" parent="WIyWlLk6GJQsqaUBKTNV-1">
          <mxGeometry x="841" y="343" width="40" height="30" as="geometry" />
        </mxCell>
        <mxCell id="F_gbSxlQktFlWxRvoj5g-40" value="" style="edgeStyle=elbowEdgeStyle;rounded=0;jumpStyle=arc;orthogonalLoop=1;jettySize=auto;html=1;" edge="1" parent="WIyWlLk6GJQsqaUBKTNV-1" source="F_gbSxlQktFlWxRvoj5g-34" target="F_gbSxlQktFlWxRvoj5g-39">
          <mxGeometry relative="1" as="geometry" />
        </mxCell>
        <mxCell id="F_gbSxlQktFlWxRvoj5g-41" style="edgeStyle=elbowEdgeStyle;rounded=0;jumpStyle=arc;orthogonalLoop=1;jettySize=auto;html=1;entryX=0;entryY=0.5;entryDx=0;entryDy=0;exitX=0.5;exitY=0;exitDx=0;exitDy=0;" edge="1" parent="WIyWlLk6GJQsqaUBKTNV-1" source="F_gbSxlQktFlWxRvoj5g-34" target="F_gbSxlQktFlWxRvoj5g-19">
          <mxGeometry relative="1" as="geometry">
            <Array as="points">
              <mxPoint x="914" y="350" />
            </Array>
          </mxGeometry>
        </mxCell>
        <mxCell id="F_gbSxlQktFlWxRvoj5g-34" value="Time&lt;br&gt;Available" style="rhombus;whiteSpace=wrap;html=1;rounded=1;" vertex="1" parent="WIyWlLk6GJQsqaUBKTNV-1">
          <mxGeometry x="874" y="420" width="80" height="80" as="geometry" />
        </mxCell>
        <mxCell id="F_gbSxlQktFlWxRvoj5g-37" value="Yes" style="text;html=1;align=center;verticalAlign=middle;resizable=0;points=[];autosize=1;strokeColor=none;fillColor=none;" vertex="1" parent="WIyWlLk6GJQsqaUBKTNV-1">
          <mxGeometry x="946" y="458" width="40" height="30" as="geometry" />
        </mxCell>
        <mxCell id="F_gbSxlQktFlWxRvoj5g-44" value="" style="edgeStyle=elbowEdgeStyle;rounded=0;jumpStyle=arc;orthogonalLoop=1;jettySize=auto;html=1;jumpSize=10;" edge="1" parent="WIyWlLk6GJQsqaUBKTNV-1" source="F_gbSxlQktFlWxRvoj5g-39" target="F_gbSxlQktFlWxRvoj5g-43">
          <mxGeometry relative="1" as="geometry" />
        </mxCell>
        <mxCell id="F_gbSxlQktFlWxRvoj5g-46" style="edgeStyle=elbowEdgeStyle;rounded=0;jumpStyle=arc;orthogonalLoop=1;jettySize=auto;html=1;entryX=0;entryY=0.5;entryDx=0;entryDy=0;exitX=0.5;exitY=0;exitDx=0;exitDy=0;" edge="1" parent="WIyWlLk6GJQsqaUBKTNV-1">
          <mxGeometry relative="1" as="geometry">
            <mxPoint x="1026.0000000000002" y="420" as="sourcePoint" />
            <mxPoint x="1269.0000000000045" y="280" as="targetPoint" />
            <Array as="points">
              <mxPoint x="1026" y="350" />
            </Array>
          </mxGeometry>
        </mxCell>
        <mxCell id="F_gbSxlQktFlWxRvoj5g-39" value="Agrees for Extra Time" style="rhombus;whiteSpace=wrap;html=1;rounded=1;" vertex="1" parent="WIyWlLk6GJQsqaUBKTNV-1">
          <mxGeometry x="987" y="420" width="80" height="80" as="geometry" />
        </mxCell>
        <mxCell id="F_gbSxlQktFlWxRvoj5g-42" value="No" style="text;html=1;align=center;verticalAlign=middle;resizable=0;points=[];autosize=1;strokeColor=none;fillColor=none;" vertex="1" parent="WIyWlLk6GJQsqaUBKTNV-1">
          <mxGeometry x="908" y="396" width="40" height="30" as="geometry" />
        </mxCell>
        <mxCell id="F_gbSxlQktFlWxRvoj5g-56" style="edgeStyle=elbowEdgeStyle;rounded=0;jumpStyle=arc;jumpSize=10;orthogonalLoop=1;jettySize=auto;html=1;entryX=0.5;entryY=0;entryDx=0;entryDy=0;exitX=0.5;exitY=0;exitDx=0;exitDy=0;" edge="1" parent="WIyWlLk6GJQsqaUBKTNV-1" source="F_gbSxlQktFlWxRvoj5g-43" target="w3meJBPXueiPkZgnFTQH-24">
          <mxGeometry relative="1" as="geometry">
            <Array as="points">
              <mxPoint x="280" y="198" />
            </Array>
          </mxGeometry>
        </mxCell>
        <mxCell id="F_gbSxlQktFlWxRvoj5g-43" value="Waits for the specified amount of time" style="whiteSpace=wrap;html=1;rounded=1;" vertex="1" parent="WIyWlLk6GJQsqaUBKTNV-1">
          <mxGeometry x="1115" y="430" width="120" height="60" as="geometry" />
        </mxCell>
        <mxCell id="F_gbSxlQktFlWxRvoj5g-45" value="Yes" style="text;html=1;align=center;verticalAlign=middle;resizable=0;points=[];autosize=1;strokeColor=none;fillColor=none;" vertex="1" parent="WIyWlLk6GJQsqaUBKTNV-1">
          <mxGeometry x="1059" y="458" width="40" height="30" as="geometry" />
        </mxCell>
        <mxCell id="F_gbSxlQktFlWxRvoj5g-47" value="No" style="text;html=1;align=center;verticalAlign=middle;resizable=0;points=[];autosize=1;strokeColor=none;fillColor=none;" vertex="1" parent="WIyWlLk6GJQsqaUBKTNV-1">
          <mxGeometry x="1020" y="397" width="40" height="30" as="geometry" />
        </mxCell>
        <mxCell id="F_gbSxlQktFlWxRvoj5g-48" value="" style="group" vertex="1" connectable="0" parent="WIyWlLk6GJQsqaUBKTNV-1">
          <mxGeometry x="980" y="400" width="30" height="40" as="geometry" />
        </mxCell>
        <mxCell id="F_gbSxlQktFlWxRvoj5g-49" value="" style="strokeWidth=2;html=1;shape=mxgraph.flowchart.delay;whiteSpace=wrap;" vertex="1" parent="F_gbSxlQktFlWxRvoj5g-48">
          <mxGeometry x="6" width="24" height="13.333333333333336" as="geometry" />
        </mxCell>
        <mxCell id="F_gbSxlQktFlWxRvoj5g-50" value="" style="strokeWidth=2;html=1;shape=mxgraph.flowchart.display;whiteSpace=wrap;rotation=-180;" vertex="1" parent="F_gbSxlQktFlWxRvoj5g-48">
          <mxGeometry x="6" y="26.664" width="24" height="13.336000000000002" as="geometry" />
        </mxCell>
        <mxCell id="F_gbSxlQktFlWxRvoj5g-51" value="" style="endArrow=classic;html=1;rounded=0;" edge="1" parent="F_gbSxlQktFlWxRvoj5g-48">
          <mxGeometry width="50" height="50" relative="1" as="geometry">
            <mxPoint y="3.333333333333334" as="sourcePoint" />
            <mxPoint y="36.66666666666667" as="targetPoint" />
          </mxGeometry>
        </mxCell>
        <mxCell id="F_gbSxlQktFlWxRvoj5g-52" value="" style="group" vertex="1" connectable="0" parent="WIyWlLk6GJQsqaUBKTNV-1">
          <mxGeometry x="1120" y="380" width="34" height="44" as="geometry" />
        </mxCell>
        <mxCell id="F_gbSxlQktFlWxRvoj5g-53" value="" style="strokeWidth=2;html=1;shape=mxgraph.flowchart.delay;whiteSpace=wrap;" vertex="1" parent="F_gbSxlQktFlWxRvoj5g-52">
          <mxGeometry x="6.800000000000001" width="27.200000000000003" height="14.666666666666666" as="geometry" />
        </mxCell>
        <mxCell id="F_gbSxlQktFlWxRvoj5g-54" value="" style="strokeWidth=2;html=1;shape=mxgraph.flowchart.display;whiteSpace=wrap;rotation=-180;" vertex="1" parent="F_gbSxlQktFlWxRvoj5g-52">
          <mxGeometry x="6.800000000000001" y="29.333333333333332" width="27.200000000000003" height="14.666666666666666" as="geometry" />
        </mxCell>
        <mxCell id="F_gbSxlQktFlWxRvoj5g-55" value="" style="endArrow=classic;html=1;rounded=0;" edge="1" parent="F_gbSxlQktFlWxRvoj5g-52">
          <mxGeometry width="50" height="50" relative="1" as="geometry">
            <mxPoint y="40.333333333333336" as="sourcePoint" />
            <mxPoint y="3.6666666666666665" as="targetPoint" />
          </mxGeometry>
        </mxCell>
      </root>
    </mxGraphModel>
  </diagram>
</mxfile>
